#N canvas 216 154 885 449 10;
#X obj 439 340 outlet~;
#X obj 136 14 inlet~;
#X obj 136 51 delwrite~ \$0-buffer_delay_feedback 5000;
#X obj 646 64 sig~;
#X obj 631 156 *~;
#X text 694 21 feedback amount;
#X obj 646 19 inlet;
#X floatatom 646 44 5 0 0 0 - - -;
#X obj 439 64 sig~;
#X obj 439 19 inlet;
#X floatatom 439 44 5 0 0 0 - - -;
#X text 487 21 Delay time (ms);
#X obj 439 258 vd~ \$0-buffer_delay_feedback;
#X connect 1 0 2 0;
#X connect 3 0 4 1;
#X connect 4 0 2 0;
#X connect 6 0 7 0;
#X connect 7 0 3 0;
#X connect 8 0 12 0;
#X connect 9 0 10 0;
#X connect 10 0 8 0;
#X connect 12 0 0 0;
#X connect 12 0 4 0;
