#N canvas 659 23 550 412 12;
#X obj 7 13 adc~ 1 2;
#X obj 7 369 dac~ 1 2;
#X obj 158 13 adc~ 3;
#X obj 7 337 _delay_feedback, f 22;
#X obj 158 111 lop~;
#X obj 158 147 snapshot~;
#X obj 158 274 change;
#X obj 158 232 maxlib/scale 0.3 0.6 0 1 0;
#X obj 158 193 clip 0.3 0.6;
#X msg 183 80 50;
#X obj 385 12 loadbang;
#X msg 385 38 1;
#X obj 385 71 metro 100;
#X connect 0 0 3 0;
#X connect 0 1 3 0;
#X connect 2 0 4 0;
#X connect 3 0 1 0;
#X connect 3 0 1 1;
#X connect 4 0 5 0;
#X connect 5 0 8 0;
#X connect 6 0 3 2;
#X connect 7 0 6 0;
#X connect 8 0 7 0;
#X connect 9 0 4 1;
#X connect 10 0 11 0;
#X connect 10 0 9 0;
#X connect 11 0 12 0;
#X connect 12 0 5 0;
